<?xml version="1.0" standalone="no"?>
<!DOCTYPE svg PUBLIC "-//W3C//DTD SVG 1.1//EN" "http://www.w3.org/Graphics/SVG/1.1/DTD/svg11.dtd" >
<svg xmlns="http://www.w3.org/2000/svg">
<metadata></metadata>
<defs>
<font id="rigby_eightregular" horiz-adv-x="804" >
<font-face units-per-em="2048" ascent="1638" descent="-410" />
<missing-glyph horiz-adv-x="368" />
<glyph horiz-adv-x="2048" />
<glyph horiz-adv-x="2048" />
<glyph unicode="&#xd;" horiz-adv-x="454" />
<glyph unicode=" "  horiz-adv-x="368" />
<glyph unicode="&#x09;" horiz-adv-x="368" />
<glyph unicode="&#xa0;" horiz-adv-x="368" />
<glyph unicode="!" horiz-adv-x="405" d="M102 0h201v180h-201v-180zM102 1536h201l-35 -1196h-133z" />
<glyph unicode="&#x22;" horiz-adv-x="679" d="M102 1536h191l-45 -360h-103zM387 1536h191l-46 -360h-102z" />
<glyph unicode="#" horiz-adv-x="1529" d="M102 465v117h1274v-117h-1274zM154 969v116h1273v-116h-1273zM383 0l164 1536h137l-166 -1536h-135zM836 0l163 1536h138l-166 -1536h-135z" />
<glyph unicode="$" horiz-adv-x="1265" d="M129 238l129 129q0 -2 26.5 -35t76 -72t121 -70.5t161.5 -31.5q68 0 124 17.5t97 49t64.5 76.5t23.5 98q0 86 -59 141.5t-148.5 97.5t-192.5 81t-192.5 94t-148.5 136t-59 206q0 82 30.5 154.5t91 128t148.5 87t203 31.5q160 0 275.5 -55t186.5 -133l-122 -131 q-25 27 -60 53.5t-78 47t-92 32.5t-102 12q-135 0 -213 -64.5t-78 -158.5q0 -80 59.5 -131t149.5 -92t194.5 -81t194.5 -95t149.5 -136t59.5 -204q0 -96 -29.5 -177t-93 -139.5t-161 -91t-232.5 -32.5q-104 0 -185 24.5t-143.5 63t-105.5 84t-70 86.5zM545 -246v1956h174 v-1956h-174z" />
<glyph unicode="%" horiz-adv-x="1832" d="M164 1133q0 72 26.5 134t72.5 109t108.5 74t136.5 27t136.5 -27t108.5 -74t72.5 -109.5t26.5 -133.5q0 -72 -26.5 -135.5t-72.5 -109.5t-108.5 -73t-136.5 -27t-136.5 27t-108.5 73t-72.5 109.5t-26.5 135.5zM295 1133q0 -43 17.5 -81t47 -67t67.5 -45t81 -16t81 16 t67.5 45t46 67t16.5 81t-16.5 80.5t-46 67.5t-67.5 46t-81 16t-81 -16t-67.5 -46t-47 -67.5t-17.5 -80.5zM352 0l989 1536h166l-991 -1536h-164zM981 381q0 72 26.5 134.5t72.5 109.5t108.5 73.5t136.5 26.5t136.5 -26.5t108.5 -73.5t72.5 -109.5t26.5 -134.5t-26.5 -135.5 t-72.5 -109.5t-108.5 -72.5t-136.5 -26.5t-136.5 26.5t-108.5 72.5t-72.5 109.5t-26.5 135.5zM1112 381q0 -43 17.5 -81t47 -66.5t67.5 -45t81 -16.5t81 16.5t67.5 45t46 66.5t16.5 81t-16.5 81t-46 67.5t-67.5 46t-81 16.5t-81 -16.5t-67.5 -46t-47 -67.5t-17.5 -81z" />
<glyph unicode="&#x26;" horiz-adv-x="1509" d="M106 434q0 80 25 141.5t66 110.5t94 87t110 71q-20 20 -53 54t-63.5 80t-52 101.5t-21.5 116.5q0 55 19.5 118.5t65.5 117t124 89t196 35.5q117 0 195 -36.5t125 -90t66.5 -110.5t19.5 -98q0 -94 -30.5 -157t-79 -108t-109 -78.5t-117.5 -68.5l352 -346q49 143 41 334 h168q12 -272 -73 -467l237 -232l-115 -118l-211 202q-80 -98 -192.5 -150t-259.5 -52q-129 0 -228.5 45t-165 112.5t-99.5 147.5t-34 149zM297 438q0 -68 27.5 -120t73.5 -88.5t108.5 -56t130.5 -19.5q100 0 180 39.5t139 113.5l-424 412q-51 -29 -94 -57.5t-74.5 -61.5 t-49 -72t-17.5 -90zM395 1194q0 -47 20.5 -89t48.5 -76t55.5 -59.5t43.5 -39.5q63 33 114.5 62.5t87.5 60t55.5 66.5t19.5 85q-2 74 -61.5 129.5t-160.5 55.5q-100 0 -161.5 -50.5t-61.5 -144.5z" />
<glyph unicode="'" horiz-adv-x="518" d="M164 1176v360h190l-98 -360h-92z" />
<glyph unicode="(" horiz-adv-x="931" d="M227 653q0 176 31 331t82 281t119.5 217t146.5 142l88 -88q-127 -92 -202.5 -315.5t-75.5 -567.5t77.5 -562t204.5 -310l-92 -94q-78 51 -146.5 142t-119.5 215t-82 278.5t-31 330.5z" />
<glyph unicode=")" horiz-adv-x="942" d="M227 -219q127 92 205 310t78 562t-76 567.5t-203 315.5l88 88q76 -51 146 -142t121 -217t81.5 -281t30.5 -331t-30.5 -330.5t-81.5 -278.5t-121 -215t-146 -142z" />
<glyph unicode="*" horiz-adv-x="851" d="M164 1305l37 118l166 -63l-5 176h127l-4 -176l166 63l37 -118l-172 -54l113 -139l-101 -76l-102 144l-102 -144l-101 76l113 139z" />
<glyph unicode="+" horiz-adv-x="909" d="M121 524v146h256v266h158v-266h256v-146h-256v-266h-158v266h-256z" />
<glyph unicode="," horiz-adv-x="518" d="M164 -174v360h190l-88 -360h-102z" />
<glyph unicode="-" d="M164 524v146h477v-146h-477z" />
<glyph unicode="." horiz-adv-x="528" d="M164 0v184h201v-184h-201z" />
<glyph unicode="/" horiz-adv-x="1114" d="M164 0l586 1516h200l-585 -1516h-201z" />
<glyph unicode="0" horiz-adv-x="1314" d="M111 768q0 162 31.5 305.5t98 251t169 169.5t241.5 62q141 0 243.5 -62t169 -169.5t98.5 -251t32 -305.5t-32 -305.5t-98.5 -251t-169 -169.5t-243.5 -62q-139 0 -241.5 62t-169 169.5t-98 251t-31.5 305.5zM301 768q0 -127 17.5 -238.5t58.5 -196.5t108.5 -134 t165.5 -49q100 0 168 49t109 134t58.5 196.5t17.5 238.5t-19.5 239.5t-61.5 197.5t-108.5 134.5t-163.5 49.5q-96 0 -162.5 -49.5t-107.5 -134.5t-60.5 -197.5t-19.5 -239.5z" />
<glyph unicode="1" horiz-adv-x="878" d="M117 1241l321 295l109 -109l-318 -301zM438 0v1536h185v-1536h-185z" />
<glyph unicode="2" horiz-adv-x="1206" d="M158 0l522 694q55 74 93 129.5t61.5 104.5t34 94t10.5 98q0 45 -18.5 93.5t-55.5 87t-89 63.5t-120 25q-109 0 -183.5 -43t-123.5 -97l-121 127q72 78 174 129t262 51q111 0 197 -38.5t144.5 -100t88 -139.5t29.5 -158q0 -78 -19.5 -149.5t-54.5 -141t-84 -140.5 t-106 -146l-287 -373h549v-170h-903z" />
<glyph unicode="3" horiz-adv-x="1196" d="M113 176l123 123q23 -29 56.5 -55.5t75.5 -48t90 -33.5t97 -12q82 0 143.5 27.5t103.5 71.5t62.5 100.5t20.5 115.5q0 80 -36 134t-97.5 88t-140.5 48.5t-165 14.5v168q86 0 158 12t124 41.5t82 80t30 126.5q0 55 -22.5 94t-61.5 65.5t-89.5 39t-105.5 12.5 q-68 0 -138.5 -17.5t-117.5 -71.5l-121 123q63 63 157.5 98t219.5 35q123 0 211 -30.5t144.5 -82.5t82 -121t25.5 -144q0 -82 -29.5 -143.5t-68.5 -103.5t-78 -64.5t-57 -24.5q18 -6 64 -27.5t94 -68t84 -119t36 -181.5q0 -78 -27.5 -160.5t-89 -150t-160 -111.5t-239.5 -44 q-135 0 -252 52t-188 144z" />
<glyph unicode="4" horiz-adv-x="1140" d="M63 422l642 1114l131 -131l-474 -815h338v272h185v-272h143v-168h-143v-422h-185v422h-637z" />
<glyph unicode="5" horiz-adv-x="1216" d="M133 176l119 121q23 -29 57.5 -55.5t76.5 -48t90 -35t95 -13.5q88 0 150.5 30t101.5 76t57.5 102.5t18.5 111.5q0 84 -26.5 152.5t-85 116.5t-148.5 74t-217 26q-45 0 -95.5 -4.5t-103.5 -10.5v717h762v-164h-577v-379q25 2 49 3t47 1q137 0 245.5 -35.5t182.5 -103 t112.5 -164t38.5 -217.5q0 -94 -26.5 -183t-88 -158.5t-160.5 -112.5t-245 -43q-135 0 -246.5 52t-183.5 144z" />
<glyph unicode="6" horiz-adv-x="1208" d="M125 469q0 59 10 114.5t33 102.5l428 850h201l-332 -631q31 20 78 29.5t88 9.5q92 0 177 -33.5t149.5 -95t102.5 -149.5t38 -197q0 -100 -36 -189.5t-100.5 -156t-154.5 -105t-197 -38.5q-106 0 -195 38.5t-153.5 105t-100.5 156t-36 189.5zM309 469q0 -68 19.5 -126 t58.5 -101t95.5 -67.5t127.5 -24.5q72 0 128.5 24.5t95 67.5t59 101t20.5 126q0 141 -79 225t-222 84q-141 0 -222 -84t-81 -225z" />
<glyph unicode="7" horiz-adv-x="1062" d="M102 1372v164h920l-586 -1536h-203l531 1372h-662z" />
<glyph unicode="8" horiz-adv-x="1243" d="M133 459q0 61 18.5 120.5t49 110.5t69.5 90t78 58q-72 41 -116 125t-44 180q0 84 28 159.5t83 132t136 89t186 32.5q104 0 185 -32.5t136 -89t84 -132t29 -159.5q0 -96 -44 -180t-116 -125q39 -18 78 -57.5t69.5 -90.5t49 -110.5t18.5 -120.5q0 -94 -29.5 -181.5 t-91 -153t-153.5 -105t-215 -39.5t-214.5 39.5t-152.5 105t-91 153t-30 181.5zM317 457q0 -61 20.5 -116.5t59.5 -97.5t95.5 -66.5t128.5 -24.5t128 24.5t96 66.5t60.5 97t20.5 117q0 63 -22.5 118.5t-62.5 95.5t-96.5 63.5t-123.5 23.5q-68 0 -124.5 -23.5t-96.5 -63.5 t-61.5 -95.5t-21.5 -118.5zM365 1139q0 -49 18 -93.5t51 -78t80 -54t107 -20.5q59 0 106 20.5t81 54t52.5 78t18.5 93.5t-16.5 95t-49.5 80t-81 54.5t-111 20.5t-111.5 -20.5t-80.5 -54.5t-48 -80t-16 -95z" />
<glyph unicode="9" horiz-adv-x="1261" d="M141 1067q0 100 36 189.5t100.5 156t153.5 105t198 38.5q106 0 195 -38.5t153.5 -105t100.5 -156t36 -189.5q0 -59 -10 -114.5t-33 -102.5l-418 -850h-204l329 633q-31 -23 -79 -32t-91 -9q-92 0 -177 33.5t-149.5 95t-102.5 149.5t-38 197zM326 1067q0 -141 79 -225 t222 -84q141 0 222 84t81 225q0 68 -20.5 126t-58.5 102t-94.5 69t-127.5 25q-72 0 -128.5 -25t-95 -69t-59 -102t-20.5 -126z" />
<glyph unicode=":" horiz-adv-x="528" d="M164 0v180h201v-180h-201zM164 725v180h201v-180h-201z" />
<glyph unicode=";" horiz-adv-x="528" d="M164 -174v360h190l-88 -360h-102zM164 725v180h201v-180h-201z" />
<glyph unicode="&#x3c;" horiz-adv-x="1284" d="M102 664v172l1080 518v-180l-901 -424l901 -424v-181z" />
<glyph unicode="=" horiz-adv-x="1175" d="M164 362v117h848v-117h-848zM164 686v117h848v-117h-848z" />
<glyph unicode="&#x3e;" horiz-adv-x="1284" d="M102 145v181l902 424l-902 424v180l1080 -518v-172z" />
<glyph unicode="?" horiz-adv-x="1087" d="M94 1389q74 84 167 125.5t222 41.5q111 0 202 -31.5t156.5 -90t101.5 -141.5t36 -185q0 -111 -33 -176.5t-81 -106.5t-104 -68.5t-106 -60.5q-37 -27 -56 -50t-28.5 -60t-12.5 -95.5t-9 -150.5h-133q-4 84 -9.5 143.5t-5.5 104.5t7.5 78.5t27.5 62.5q47 70 107.5 104.5 t114 66.5t90 79t36.5 141q0 119 -80.5 194t-220.5 75q-88 0 -155.5 -37t-106.5 -90zM383 0v180h201v-180h-201z" />
<glyph unicode="@" horiz-adv-x="1701" d="M82 731q0 154 54 301.5t157.5 264t252 188t339.5 71.5q160 0 295 -54t233 -152.5t152.5 -234.5t54.5 -300q0 -98 -27.5 -181t-80 -144.5t-125 -95.5t-162.5 -34q-31 0 -63 7.5t-59.5 28t-49 57t-33.5 94.5q-35 -72 -100.5 -119t-147.5 -47q-150 0 -238 89t-88 235 q0 125 43 210.5t115 139t164 77t193 23.5q121 0 180 -8t59 -6l-47 -473q-2 -10 -2 -21.5v-21.5q0 -63 24.5 -103.5t90.5 -40.5q41 0 78.5 21.5t67.5 61.5t47.5 97.5t17.5 129.5q0 143 -40 258.5t-115 198.5t-184.5 128t-250.5 45q-150 0 -270.5 -58t-204.5 -153.5 t-130 -215.5t-46 -242q0 -152 49 -269.5t135 -197.5t202.5 -121t249.5 -41q117 0 227.5 40t205.5 132l94 -96q-117 -117 -257.5 -168t-285.5 -51q-176 0 -318.5 61t-243.5 165.5t-156.5 241t-55.5 283.5zM598 743q0 -106 46 -173.5t144 -67.5t155.5 78.5t70.5 205.5l24 252 q-20 2 -37.5 3t-35.5 1q-94 0 -163 -23.5t-113 -63.5t-66.5 -94t-24.5 -118z" />
<glyph unicode="A" horiz-adv-x="1429" d="M29 0l686 1597l686 -1597h-195l-178 414h-627l-178 -414h-194zM479 586h471l-235 571z" />
<glyph unicode="B" horiz-adv-x="1396" d="M236 0v1536h503q84 0 167 -21.5t149.5 -71.5t108.5 -132t42 -201q0 -127 -65.5 -194.5t-169.5 -98.5q57 -18 110.5 -52t93 -83t64.5 -112.5t25 -141.5q0 -121 -54.5 -203t-139.5 -132t-191.5 -71.5t-210.5 -21.5h-432zM426 174h246q84 0 156.5 14.5t127 47t86 86 t31.5 131.5q0 70 -34.5 120t-92 81.5t-131.5 46t-149 14.5h-240v-541zM426 887h246q168 0 256 62.5t88 185.5q0 68 -25.5 111.5t-68.5 69t-101.5 37t-124.5 11.5h-270v-477z" />
<glyph unicode="C" horiz-adv-x="1492" d="M82 754q0 168 57.5 314t157.5 255t238.5 171t298.5 62q166 0 305 -67.5t239 -183.5l-123 -123q-72 88 -179 142t-240 54q-127 0 -230.5 -48t-175.5 -132t-110.5 -198.5t-38.5 -247.5t42 -242t116.5 -186.5t176 -119.5t220.5 -42q141 0 255.5 56t192.5 157l125 -127 q-100 -127 -247.5 -197.5t-327.5 -70.5q-158 0 -295.5 57t-238.5 159.5t-159.5 245t-58.5 312.5z" />
<glyph unicode="D" horiz-adv-x="1507" d="M236 0v1536h407q160 0 298 -44t241.5 -137t163 -236.5t59.5 -342.5q0 -397 -183.5 -586.5t-572.5 -189.5h-413zM426 174h203q309 0 447 147.5t138 452.5q0 152 -44 262.5t-122.5 183t-186 107.5t-236.5 35h-199v-1188z" />
<glyph unicode="E" horiz-adv-x="1310" d="M236 0v1536h921v-172h-731v-500h641v-172h-641v-518h731v-174h-921z" />
<glyph unicode="F" horiz-adv-x="1261" d="M236 0v1536h921v-172h-731v-500h641v-172h-641v-692h-190z" />
<glyph unicode="G" horiz-adv-x="1536" d="M82 754q0 168 57.5 314t157.5 255t238.5 171t298.5 62q166 0 305 -67.5t239 -183.5l-123 -123q-72 88 -179 142t-240 54q-127 0 -230.5 -48t-175.5 -132t-110.5 -198.5t-38.5 -247.5t39.5 -237.5t107.5 -179.5t156 -119t184 -52q92 -10 173 -11h32q61 0 108 3 q70 4 129 10v362q0 57 -20.5 91t-54 50.5t-75.5 20.5t-87 4v172q57 0 132 -4t141.5 -34.5t111.5 -100.5t45 -201v-526q-92 -10 -195 -16q-88 -6 -200 -8q-25 -1 -50 -1q-89 0 -184 7q-137 8 -262 66t-220 157.5t-152.5 239t-57.5 309.5z" />
<glyph unicode="H" horiz-adv-x="1531" d="M236 0v1536h190v-672h680v672h190v-1536h-190v692h-680v-692h-190z" />
<glyph unicode="I" horiz-adv-x="671" d="M240 0v1536h190v-1536h-190z" />
<glyph unicode="J" horiz-adv-x="835" d="M39 61l125 125q23 -18 48.5 -26t49.5 -8q63 0 94 34.5t44 85.5q11 48 11 102v9q-1 59 -1 106v1047h190v-1106q0 -96 -11 -179t-45 -144.5t-98.5 -96.5t-169.5 -35q-57 0 -101 13.5t-75 29.5q-37 18 -61 43z" />
<glyph unicode="K" horiz-adv-x="1402" d="M236 0v1536h190v-782l664 782h237l-557 -647l561 -889h-231l-459 745l-215 -239v-506h-190z" />
<glyph unicode="L" horiz-adv-x="1169" d="M236 0v1536h190v-1362h692v-174h-882z" />
<glyph unicode="M" horiz-adv-x="1863" d="M225 0v1597l707 -839l706 839v-1597h-190v1085l-516 -612l-516 612v-1085h-191z" />
<glyph unicode="N" horiz-adv-x="1462" d="M201 0v1597l870 -1120v1059h191v-1597l-871 1120v-1059h-190z" />
<glyph unicode="O" horiz-adv-x="1640" d="M82 754q0 168 57.5 314t157.5 255t238.5 171t298.5 62t296 -62t234 -171t154.5 -255t56.5 -314q0 -172 -56.5 -314.5t-155.5 -245t-235.5 -158.5t-293.5 -56q-158 0 -295.5 57t-238.5 159.5t-159.5 245t-58.5 312.5zM281 752q0 -133 42 -242t116.5 -186.5t176 -119.5 t220.5 -42q121 0 221 42t170.5 119.5t109.5 186t39 242.5q0 133 -38 247.5t-107.5 198.5t-169.5 132t-225 48q-127 0 -230.5 -48t-175.5 -132t-110.5 -198.5t-38.5 -247.5z" />
<glyph unicode="P" horiz-adv-x="1302" d="M236 0v1536h503q84 0 167 -23.5t149.5 -76t108.5 -135t42 -201.5q0 -104 -45 -181t-119.5 -127.5t-172 -75t-201.5 -24.5h-242v-692h-190zM426 864h246q168 0 256 68.5t88 191.5q0 68 -25.5 113t-68.5 73.5t-101.5 41t-124.5 12.5h-270v-500z" />
<glyph unicode="Q" horiz-adv-x="1673" d="M82 754q0 168 57.5 314t157.5 255t238.5 171t298.5 62t296 -62t234 -171t154.5 -255t56.5 -314q0 -143 -40 -265t-112 -221l174 -172l-129 -129l-170 170q-96 -76 -212.5 -116.5t-251.5 -40.5q-158 0 -295.5 57t-238.5 159.5t-159.5 245t-58.5 312.5zM281 752 q0 -133 42 -242t116.5 -186.5t176 -119.5t220.5 -42q121 0 221 42t170.5 119.5t109.5 186t39 242.5q0 133 -38 247.5t-107.5 198.5t-169.5 132t-225 48q-127 0 -230.5 -48t-175.5 -132t-110.5 -198.5t-38.5 -247.5z" />
<glyph unicode="R" horiz-adv-x="1361" d="M236 0v1536h503q84 0 167 -23.5t149.5 -76t108.5 -135t42 -201.5q0 -104 -45 -181t-119.5 -127.5t-172 -75t-201.5 -24.5h-242v-692h-190zM426 864h246q168 0 256 68.5t88 191.5q0 68 -25.5 113t-68.5 73.5t-101.5 41t-124.5 12.5h-270v-500zM655 723l193 33l412 -756 h-226z" />
<glyph unicode="S" horiz-adv-x="1265" d="M129 238l129 129q0 -2 26.5 -35t76 -72t121 -70.5t161.5 -31.5q68 0 124 17.5t97 49t63.5 76.5t22.5 98q0 66 -34.5 112t-90 82t-127 65.5t-147.5 61.5t-147.5 67.5t-127 86t-90 119t-34.5 162.5q0 82 30.5 154.5t91 128t148.5 87t203 31.5q160 0 275.5 -55t186.5 -133 l-122 -131q-25 27 -60 53.5t-78 47t-92 32.5t-102 12q-135 0 -213 -64.5t-78 -158.5q0 -80 59.5 -131t149.5 -92t194.5 -81t194.5 -95t149.5 -136t59.5 -204q0 -96 -29.5 -177t-93 -139.5t-161 -91t-232.5 -32.5q-104 0 -185 24.5t-143.5 63t-105.5 84t-70 86.5z" />
<glyph unicode="T" horiz-adv-x="1116" d="M63 1364v172h990v-172h-990zM463 0v1444h190v-1444h-190z" />
<glyph unicode="U" horiz-adv-x="1536" d="M236 524v1012h190v-1012q0 -80 25.5 -148.5t71.5 -118.5t109.5 -78.5t137.5 -28.5q72 0 134.5 28.5t108.5 78.5t71.5 118.5t25.5 148.5v1012h190v-1012q0 -129 -40.5 -230t-112.5 -171t-169 -106.5t-208 -36.5t-208 36.5t-170 106.5t-114.5 171t-41.5 230z" />
<glyph unicode="V" horiz-adv-x="1271" d="M41 1536h197l397 -1085l397 1085h197l-594 -1597z" />
<glyph unicode="W" horiz-adv-x="2150" d="M72 1536h196l398 -1085l409 1146l410 -1146l397 1085h197l-594 -1618l-410 1137l-409 -1137z" />
<glyph unicode="X" horiz-adv-x="1400" d="M106 0l472 786l-451 750h215l358 -606l359 606h215l-451 -750l471 -786h-225l-369 627l-368 -627h-226z" />
<glyph unicode="Y" horiz-adv-x="1361" d="M78 1536h213l389 -702l391 702h213l-508 -901v-635h-190v635z" />
<glyph unicode="Z" horiz-adv-x="1331" d="M88 0l827 1364h-772v172h1096l-819 -1362h778v-174h-1110z" />
<glyph unicode="[" horiz-adv-x="708" d="M164 -82v1618h381v-158h-191v-1302h191v-158h-381z" />
<glyph unicode="\" horiz-adv-x="1114" d="M164 1536h201l585 -1536h-200z" />
<glyph unicode="]" horiz-adv-x="708" d="M164 76h190v1302h-190v158h381v-1618h-381v158z" />
<glyph unicode="^" horiz-adv-x="974" d="M102 940l304 596h163l303 -596h-190q-33 72 -68 145q-29 63 -63.5 137t-63.5 140q-31 -66 -64.5 -139.5t-62.5 -137.5q-35 -74 -67 -145h-191z" />
<glyph unicode="_" horiz-adv-x="1183" d="M61 -82h1061v-129h-1061v129z" />
<glyph unicode="`" horiz-adv-x="614" d="M92 1536h230l235 -276h-158z" />
<glyph unicode="a" horiz-adv-x="1308" d="M92 481q0 170 57.5 280.5t151.5 176.5t213 91.5t242 25.5h305v-768q0 -41 14.5 -65.5t39 -37t58 -16.5t74.5 -4v-164q-43 0 -97 2t-104.5 17.5t-90.5 50t-58 100.5q-59 -90 -139 -140t-197 -50q-111 0 -198 36.5t-147 102t-92 159t-32 203.5zM276 481q0 -70 17.5 -130 t53.5 -105t92.5 -70.5t135.5 -25.5q82 0 139.5 26.5t93.5 74.5t52.5 116.5t16.5 154.5v365h-107q-98 0 -187 -15.5t-157 -59.5t-109 -124t-41 -207z" />
<glyph unicode="b" horiz-adv-x="1249" d="M190 0v1536h185v-627q49 78 129 122t186 44q111 0 198 -35.5t147.5 -101.5t92 -158t31.5 -202q0 -170 -57.5 -282t-151.5 -177.5t-213 -92t-241 -26.5h-306zM375 170h106q98 0 187.5 15.5t157 60.5t108.5 125t41 207q0 70 -17.5 130t-53.5 104t-92 69.5t-136 25.5 t-137.5 -29.5t-94 -83t-53 -126t-16.5 -156.5v-342z" />
<glyph unicode="c" horiz-adv-x="1044" d="M92 524q0 111 38 211.5t107.5 175t164 119.5t208.5 45q111 0 199 -30.5t145 -96.5l-114 -110q-20 14 -40 26.5t-45.5 21.5t-60.5 15t-84 6q-80 0 -141 -30.5t-104 -84t-66 -123t-23 -145.5t23 -144.5t66 -119.5t104 -80.5t141 -29.5q78 0 134.5 14t109.5 57l117 -119 q-47 -55 -140.5 -88.5t-220.5 -33.5q-115 0 -209 44t-163.5 117.5t-107.5 173t-38 209.5z" />
<glyph unicode="d" horiz-adv-x="1282" d="M125 481q0 150 51 259.5t135 181t190.5 105.5t217.5 34q29 0 61.5 -1t61.5 -3q35 -2 67 -2v461h185v-1516h-185v143q-57 -78 -135 -120.5t-180 -42.5q-111 0 -198 36.5t-147.5 102t-92 159t-31.5 203.5zM309 481q0 -70 17.5 -130t53.5 -105t92 -70.5t136 -25.5 q162 0 233.5 101t71.5 271v363q-29 2 -59 4q-27 2 -57.5 3t-57.5 1q-82 0 -158.5 -19.5t-137 -66.5t-97.5 -127t-37 -199z" />
<glyph unicode="e" horiz-adv-x="1226" d="M92 524q0 111 40 211.5t110.5 175t167 119.5t211.5 45q113 0 210 -45t167.5 -119.5t110.5 -175t40 -211.5q0 -41 -6 -78h-860q12 -63 40.5 -117.5t72.5 -94t101.5 -62t123.5 -22.5q57 0 100 6t78 18t64.5 30.5t60.5 41.5l116 -115q-63 -68 -164.5 -109.5t-254.5 -41.5 q-115 0 -211.5 44t-167 117.5t-110.5 173t-40 209.5zM283 598h675q-10 63 -38.5 120.5t-72.5 98.5t-101 65.5t-125 24.5t-124.5 -24.5t-100.5 -65.5t-73.5 -98t-39.5 -121z" />
<glyph unicode="f" horiz-adv-x="778" d="M117 895v160h141v168q0 121 40 185.5t98.5 93t125 31.5t119.5 3v-160q-41 0 -77 -4t-63.5 -18.5t-43 -39t-15.5 -65.5v-194h199v-160h-199v-895h-184v895h-141z" />
<glyph unicode="g" horiz-adv-x="1157" d="M111 -199q0 59 28.5 109.5t75.5 81.5l115 -115q-10 -10 -23.5 -22.5t-13.5 -42.5q0 -33 23.5 -58.5t63.5 -44t94 -28t116 -9.5q37 0 86 5.5t92 20.5t72.5 45t29.5 77q0 31 -23.5 52.5t-63.5 37.5t-91 27.5t-104 21.5q-186 35 -294 95.5t-108 158.5q0 59 37 103t115 69 q-80 31 -139.5 98.5t-59.5 180.5q0 78 38 149.5t104.5 126.5t158.5 88t201 33q143 0 222 -1t118 -3q45 -2 55 -2q0 -23 2 -45q0 -20 1 -46t1 -55q0 -150 -23.5 -259t-72.5 -184t-124 -117t-175 -56q-51 -6 -97 -12.5t-82 -13.5t-57.5 -18t-21.5 -28q0 -23 28.5 -38t76 -27.5 t109 -23.5t126.5 -23q154 -31 240 -104t86 -200q0 -80 -41 -136t-106.5 -92t-151.5 -52.5t-174 -16.5q-76 0 -159 17.5t-151.5 52.5t-113.5 90.5t-45 132.5zM326 647q0 -82 59 -143.5t174 -61.5q297 0 297 389q0 16 -1 32t-1 32q-18 0 -47 2q-25 2 -62 3t-90 1 q-74 0 -134 -18.5t-104 -52t-67.5 -81t-23.5 -102.5z" />
<glyph unicode="h" horiz-adv-x="1107" d="M127 0v1536h184v-625q35 78 119 121t170 43q184 0 285.5 -125t101.5 -399v-551h-184v528q0 201 -52.5 289t-183.5 88q-45 0 -91 -18.5t-83 -59.5t-59.5 -108.5t-22.5 -165.5v-553h-184z" />
<glyph unicode="i" horiz-adv-x="573" d="M195 0v1055h184v-1055h-184zM195 1356v180h184v-180h-184z" />
<glyph unicode="j" horiz-adv-x="571" d="M16 -328q41 0 76 5.5t60.5 18.5t40 38.5t14.5 66.5v1254h184v-1233q0 -121 -39 -185.5t-95 -93t-121.5 -32t-119.5 -3.5v164zM207 1356v180h184v-180h-184z" />
<glyph unicode="k" horiz-adv-x="1144" d="M205 0v1536h184v-946q6 10 55 63q20 23 52 56.5t78.5 82t107.5 114t141 149.5h238l-379 -393l420 -662h-215l-328 551l-170 -178v-373h-184z" />
<glyph unicode="l" horiz-adv-x="610" d="M174 313v1223h184v-1247q0 -41 14.5 -65.5t40 -38t60.5 -17.5t76 -4v-164q-53 0 -118.5 3t-123 31.5t-95.5 93.5t-38 185z" />
<glyph unicode="m" horiz-adv-x="1843" d="M184 0v1055h185v-144q35 78 113.5 121t164.5 43q113 0 195 -53t119 -145q29 59 67.5 98t83.5 61.5t93 30.5t98 8q184 0 280 -125t96 -399v-551h-184v528q0 100 -10 171t-37 117t-70 67.5t-108 21.5q-45 0 -89 -18.5t-79 -59.5t-56.5 -108.5t-21.5 -165.5v-553h-184v528 q0 100 -10.5 171t-37 117t-69.5 67.5t-109 21.5q-45 0 -89 -18.5t-78.5 -59.5t-56 -108.5t-21.5 -165.5v-553h-185z" />
<glyph unicode="n" horiz-adv-x="1208" d="M184 0v1055h185v-144q35 78 118.5 121t169.5 43q184 0 285.5 -125t101.5 -399v-551h-184v528q0 201 -52 289t-183 88q-45 0 -91.5 -18.5t-83 -59.5t-59 -108.5t-22.5 -165.5v-553h-185z" />
<glyph unicode="o" horiz-adv-x="1241" d="M92 524q0 111 40 211.5t110.5 175t167 119.5t211.5 45q113 0 210 -45t167.5 -119.5t110.5 -175t40 -211.5t-40 -210t-110.5 -172.5t-168 -117.5t-209.5 -44q-115 0 -211.5 44t-167 117.5t-110.5 172.5t-40 210zM276 524q0 -76 26 -144.5t71 -119.5t108.5 -80.5 t139.5 -29.5t139 29.5t109 80.5t71 120t25 144q0 76 -25 145.5t-71 123t-109.5 84t-138.5 30.5q-76 0 -139.5 -30.5t-108.5 -84t-71 -123t-26 -145.5z" />
<glyph unicode="p" horiz-adv-x="1275" d="M211 -471v1526h184v-144q57 78 135.5 121t180.5 43q111 0 197.5 -38t147 -105.5t92.5 -160.5t32 -204q0 -152 -51.5 -259t-135.5 -178t-190.5 -103.5t-216.5 -32.5h-61.5t-61.5 2q-35 2 -68 4v-471h-184zM391 174q29 -2 60 -4q27 -2 56.5 -3t57.5 -1q82 0 159 18.5 t137.5 63.5t97 123t36.5 198q0 70 -17 131.5t-53 107.5t-92.5 72.5t-136.5 26.5q-82 0 -139 -30.5t-94 -85t-54.5 -128t-17.5 -159.5v-330z" />
<glyph unicode="q" horiz-adv-x="1275" d="M92 481q0 170 57.5 280.5t151.5 176.5t213 91.5t242 25.5h305v-1258q0 -41 14.5 -65.5t39 -39t59 -18.5t75.5 -4v-162q-53 0 -118.5 3.5t-122 32t-94 93t-37.5 185.5v319q-59 -78 -134 -119.5t-182 -41.5q-111 0 -198 36.5t-147 102t-92 159t-32 203.5zM276 481 q0 -70 17.5 -130t53.5 -105t92.5 -70.5t135.5 -25.5q82 0 139.5 26.5t93.5 74.5t52.5 116.5t16.5 154.5v365h-107q-98 0 -187 -15.5t-157 -59.5t-109 -124t-41 -207z" />
<glyph unicode="r" horiz-adv-x="757" d="M184 0v1055h185v-174q33 104 124 149t214 45v-168q-43 0 -101 2h-8h-4q-50 0 -98 -23q-54 -26 -90.5 -92.5t-36.5 -203.5v-590h-185z" />
<glyph unicode="s" horiz-adv-x="1003" d="M104 145l125 125q25 -33 62 -59q29 -23 73 -42t97 -24q17 -2 34 -2q27 1 54 5q43 6 78 23t58.5 43t27.5 62q1 7 1 13q0 43 -36 72q-41 34 -104.5 63t-141.5 55.5t-143.5 65.5t-110.5 94t-45 139q0 61 25.5 115.5t73 94.5t116 63.5t152.5 23.5q104 0 192 -27.5t154 -86.5 l-119 -119q-29 27 -90.5 47t-128.5 22h-9h-5q-60 0 -112 -25q-58 -28 -65 -91q-1 -6 -1 -12q0 -41 36 -68q41 -31 105.5 -56.5t141.5 -52t143.5 -65.5t110.5 -97.5t44 -146.5q0 -49 -18.5 -104.5t-65.5 -102.5t-127 -78.5t-205 -31.5q-94 0 -163.5 25.5t-116.5 55.5 q-55 37 -97 84z" />
<glyph unicode="t" horiz-adv-x="788" d="M117 895v160h141v286h184v-286h199v-160h-199v-604q0 -41 15.5 -65.5t43 -39t63.5 -18.5t77 -4v-164q-53 0 -119.5 3t-125 31.5t-98.5 93.5t-40 185v582h-141z" />
<glyph unicode="u" horiz-adv-x="1208" d="M174 524v531h184v-510q0 -190 53.5 -292.5t192.5 -102.5q137 0 191.5 102t54.5 293v510h184v-531q0 -285 -111.5 -414.5t-318.5 -129.5t-318.5 130t-111.5 414z" />
<glyph unicode="v" horiz-adv-x="1077" d="M51 1055h203l285 -676l284 676h203l-487 -1096z" />
<glyph unicode="w" horiz-adv-x="1660" d="M70 1055h186l289 -672l286 713l287 -713l289 672h186l-475 -1096l-287 688l-286 -688z" />
<glyph unicode="x" horiz-adv-x="1232" d="M92 0l402 532l-377 523h213l286 -404l289 404h209l-375 -523l402 -532h-221l-304 403l-303 -403h-221z" />
<glyph unicode="y" horiz-adv-x="1216" d="M176 500v555h184v-529q0 -201 52.5 -288.5t183.5 -87.5q43 0 88 17t82 56t60.5 102.5t25.5 155.5v574h184v-1114q0 -109 -26.5 -182.5t-68.5 -121t-95 -74t-107.5 -38.5t-105.5 -14.5t-86 -2.5v164q41 0 93 4.5t99 29t80 78.5t33 157v202q-35 -78 -119 -120.5t-170 -42.5 q-184 0 -285.5 122.5t-101.5 397.5z" />
<glyph unicode="z" horiz-adv-x="1085" d="M80 0l579 887h-516v168h842l-579 -885h557v-170h-883z" />
<glyph unicode="{" horiz-adv-x="776" d="M102 614v158q41 0 76 5t60.5 18.5t40 39t14.5 66.5v322q0 121 39 185.5t97 93t125 31.5t120 3v-158q-41 0 -76 -5t-60.5 -18.5t-40 -39t-14.5 -66.5v-321q0 -86 -38.5 -143.5t-98.5 -92.5q59 -35 98 -91t39 -142v-322q0 -41 14.5 -66.5t40 -39t60.5 -18.5t76 -5v-158 q-53 0 -120 3.5t-125 32t-97 93t-39 185.5v321q0 41 -14.5 67t-40 39t-60.5 18t-76 5z" />
<glyph unicode="|" horiz-adv-x="378" d="M102 -471v2152h174v-2152h-174z" />
<glyph unicode="}" horiz-adv-x="776" d="M102 8q41 0 76 5t60.5 18.5t40 39t14.5 66.5v322q0 80 33.5 135t88 90t122 51.5t137.5 16.5v-138q-41 0 -76 -5t-60.5 -18t-40 -39t-14.5 -67v-321q0 -121 -38.5 -185.5t-97 -93t-125 -32t-120.5 -3.5v158zM102 1378v158q53 0 120 -3t125.5 -31.5t97 -93.5t38.5 -185 v-322q0 -41 14.5 -66.5t40 -39t60.5 -18.5t76 -5v-137q-70 0 -137.5 16.5t-122 51t-88 90t-33.5 135.5v321q0 41 -14.5 66.5t-40 39t-60.5 18.5t-76 5z" />
<glyph unicode="~" horiz-adv-x="1148" d="M141 578q82 96 160 126.5t150.5 26.5t141.5 -28.5t131 -39t119.5 -4t108.5 75.5l115 -112q-72 -100 -140.5 -130t-136 -24t-132 32.5t-131 43t-136 5.5t-141.5 -81z" />
<glyph unicode="&#xa5;" horiz-adv-x="1361" d="M78 1516h213l389 -703l391 703h213l-508 -902v-614h-190v614zM236 406v116h888v-116h-888zM236 696v117h888v-117h-888z" />
<glyph unicode="&#xa9;" horiz-adv-x="1705" d="M205 0v164h184v-164h-184zM614 0v168h191v-168h-191z" />
<glyph unicode="&#xad;" d="M164 524v146h477v-146h-477z" />
<glyph unicode="&#xb0;" horiz-adv-x="864" d="M102 1227q0 68 26 128t70 105t104 70.5t130 25.5t130.5 -25.5t104.5 -70.5t69.5 -105.5t25.5 -127.5q0 -70 -25.5 -130.5t-69.5 -104.5t-104.5 -69.5t-130.5 -25.5t-130 25.5t-104 69.5t-70 104.5t-26 130.5zM227 1227q0 -41 16.5 -78t45 -64.5t65.5 -43t78 -15.5 t78 15.5t64.5 43t44 64.5t16.5 78t-16.5 77.5t-44 64.5t-64.5 44.5t-78 16.5t-78 -16.5t-65.5 -44.5t-45 -64.5t-16.5 -77.5z" />
<glyph unicode="&#xb4;" horiz-adv-x="649" d="M92 1260l236 276h229l-307 -276h-158z" />
<glyph unicode="&#xc0;" horiz-adv-x="1363" d="M29 0l686 1597l686 -1597h-195l-178 414h-627l-178 -414h-194zM393 1966h230l235 -276h-158zM479 586h471l-235 571z" />
<glyph unicode="&#xc1;" horiz-adv-x="1363" d="M29 0l686 1597l686 -1597h-195l-178 414h-627l-178 -414h-194zM479 586h471l-235 571zM510 1690l236 276h229l-307 -276h-158z" />
<glyph unicode="&#xc2;" horiz-adv-x="1363" d="M29 0l686 1597l686 -1597h-195l-178 414h-627l-178 -414h-194zM332 1690l266 276h166l266 -276h-195l-155 163l-154 -163h-194zM479 586h471l-235 571z" />
<glyph unicode="&#xc8;" horiz-adv-x="1333" d="M236 0v1536h921v-172h-731v-500h641v-172h-641v-518h731v-174h-921zM434 1966h230l235 -276h-158z" />
<glyph unicode="&#xc9;" horiz-adv-x="1333" d="M236 0v1536h921v-172h-731v-500h641v-172h-641v-518h731v-174h-921zM434 1690l236 276h229l-307 -276h-158z" />
<glyph unicode="&#xcc;" horiz-adv-x="671" d="M102 1966h230l235 -276h-158zM240 0v1536h190v-1536h-190z" />
<glyph unicode="&#xcd;" horiz-adv-x="671" d="M102 1690l236 276h229l-307 -276h-158zM240 0v1536h190v-1536h-190z" />
<glyph unicode="&#xce;" horiz-adv-x="671" d="M-10 1690l266 276h166l266 -276h-195l-155 163l-154 -163h-194zM240 0v1536h190v-1536h-190z" />
<glyph unicode="&#xd2;" horiz-adv-x="1640" d="M82 754q0 168 57.5 314t157.5 255t238.5 171t298.5 62t296 -62t234 -171t154.5 -255t56.5 -314q0 -172 -56.5 -314.5t-155.5 -245t-235.5 -158.5t-293.5 -56q-158 0 -295.5 57t-238.5 159.5t-159.5 245t-58.5 312.5zM281 752q0 -133 42 -242t116.5 -186.5t176 -119.5 t220.5 -42q121 0 221 42t170.5 119.5t109.5 186t39 242.5q0 133 -38 247.5t-107.5 198.5t-169.5 132t-225 48q-127 0 -230.5 -48t-175.5 -132t-110.5 -198.5t-38.5 -247.5zM547 1966h230l235 -276h-158z" />
<glyph unicode="&#xd3;" horiz-adv-x="1640" d="M82 754q0 168 57.5 314t157.5 255t238.5 171t298.5 62t296 -62t234 -171t154.5 -255t56.5 -314q0 -172 -56.5 -314.5t-155.5 -245t-235.5 -158.5t-293.5 -56q-158 0 -295.5 57t-238.5 159.5t-159.5 245t-58.5 312.5zM281 752q0 -133 42 -242t116.5 -186.5t176 -119.5 t220.5 -42q121 0 221 42t170.5 119.5t109.5 186t39 242.5q0 133 -38 247.5t-107.5 198.5t-169.5 132t-225 48q-127 0 -230.5 -48t-175.5 -132t-110.5 -198.5t-38.5 -247.5zM629 1690l236 276h229l-307 -276h-158z" />
<glyph unicode="&#xd9;" horiz-adv-x="1536" d="M236 524v1012h190v-1012q0 -80 25.5 -148.5t71.5 -118.5t109.5 -78.5t137.5 -28.5q72 0 134.5 28.5t108.5 78.5t71.5 118.5t25.5 148.5v1012h190v-1012q0 -129 -40.5 -230t-112.5 -171t-169 -106.5t-208 -36.5t-208 36.5t-170 106.5t-114.5 171t-41.5 230zM489 1966h230 l235 -276h-158z" />
<glyph unicode="&#xda;" horiz-adv-x="1536" d="M236 524v1012h190v-1012q0 -80 25.5 -148.5t71.5 -118.5t109.5 -78.5t137.5 -28.5q72 0 134.5 28.5t108.5 78.5t71.5 118.5t25.5 148.5v1012h190v-1012q0 -129 -40.5 -230t-112.5 -171t-169 -106.5t-208 -36.5t-208 36.5t-170 106.5t-114.5 171t-41.5 230zM575 1690 l236 276h229l-307 -276h-158z" />
<glyph unicode="&#xdd;" horiz-adv-x="1361" d="M78 1536h213l389 -702l391 702h213l-508 -901v-635h-190v635zM489 1690l236 276h229l-307 -276h-158z" />
<glyph unicode="&#xe0;" horiz-adv-x="1316" d="M94 481q0 170 57.5 280.5t151.5 176.5t213 91.5t242 25.5h305v-768q0 -41 14.5 -65.5t39 -37t58 -16.5t74.5 -4v-164q-43 0 -97 2t-104.5 17.5t-90.5 50t-58 100.5q-59 -90 -139 -140t-197 -50q-111 0 -198 36.5t-147 102t-92 159t-32 203.5zM278 481q0 -70 17.5 -130 t53.5 -105t92.5 -70.5t135.5 -25.5q82 0 139.5 26.5t93.5 74.5t52.5 116.5t16.5 154.5v365h-107q-98 0 -187 -15.5t-157 -59.5t-109 -124t-41 -207zM426 1536h230l235 -276h-158z" />
<glyph unicode="&#xe1;" horiz-adv-x="1316" d="M94 481q0 170 57.5 280.5t151.5 176.5t213 91.5t242 25.5h305v-768q0 -41 14.5 -65.5t39 -37t58 -16.5t74.5 -4v-164q-43 0 -97 2t-104.5 17.5t-90.5 50t-58 100.5q-59 -90 -139 -140t-197 -50q-111 0 -198 36.5t-147 102t-92 159t-32 203.5zM278 481q0 -70 17.5 -130 t53.5 -105t92.5 -70.5t135.5 -25.5q82 0 139.5 26.5t93.5 74.5t52.5 116.5t16.5 154.5v365h-107q-98 0 -187 -15.5t-157 -59.5t-109 -124t-41 -207zM426 1260l236 276h229l-307 -276h-158z" />
<glyph unicode="&#xe2;" horiz-adv-x="1316" d="M94 481q0 170 57.5 280.5t151.5 176.5t213 91.5t242 25.5h305v-768q0 -41 14.5 -65.5t39 -37t58 -16.5t74.5 -4v-164q-43 0 -97 2t-104.5 17.5t-90.5 50t-58 100.5q-59 -90 -139 -140t-197 -50q-111 0 -198 36.5t-147 102t-92 159t-32 203.5zM278 481q0 -70 17.5 -130 t53.5 -105t92.5 -70.5t135.5 -25.5q82 0 139.5 26.5t93.5 74.5t52.5 116.5t16.5 154.5v365h-107q-98 0 -187 -15.5t-157 -59.5t-109 -124t-41 -207zM310 1260l266 276h166l266 -276h-195l-155 163l-154 -163h-194z" />
<glyph unicode="&#xe8;" horiz-adv-x="1249" d="M102 524q0 111 40 211.5t110.5 175t167 119.5t211.5 45q113 0 210 -45t167.5 -119.5t110.5 -175t40 -211.5q0 -41 -6 -78h-860q12 -63 40.5 -117.5t72.5 -94t101.5 -62t123.5 -22.5q57 0 100 6t78 18t64.5 30.5t60.5 41.5l116 -115q-63 -68 -164.5 -109.5t-254.5 -41.5 q-115 0 -211.5 44t-167 117.5t-110.5 173t-40 209.5zM293 598h675q-10 63 -38.5 120.5t-72.5 98.5t-101 65.5t-125 24.5t-124.5 -24.5t-100.5 -65.5t-73.5 -98t-39.5 -121zM391 1536h230l235 -276h-158z" />
<glyph unicode="&#xe9;" horiz-adv-x="1249" d="M102 524q0 111 40 211.5t110.5 175t167 119.5t211.5 45q113 0 210 -45t167.5 -119.5t110.5 -175t40 -211.5q0 -41 -6 -78h-860q12 -63 40.5 -117.5t72.5 -94t101.5 -62t123.5 -22.5q57 0 100 6t78 18t64.5 30.5t60.5 41.5l116 -115q-63 -68 -164.5 -109.5t-254.5 -41.5 q-115 0 -211.5 44t-167 117.5t-110.5 173t-40 209.5zM293 598h675q-10 63 -38.5 120.5t-72.5 98.5t-101 65.5t-125 24.5t-124.5 -24.5t-100.5 -65.5t-73.5 -98t-39.5 -121zM391 1260l236 276h229l-307 -276h-158z" />
<glyph unicode="&#xea;" horiz-adv-x="1249" d="M102 524q0 111 40 211.5t110.5 175t167 119.5t211.5 45q113 0 210 -45t167.5 -119.5t110.5 -175t40 -211.5q0 -41 -6 -78h-860q12 -63 40.5 -117.5t72.5 -94t101.5 -62t123.5 -22.5q57 0 100 6t78 18t64.5 30.5t60.5 41.5l116 -115q-63 -68 -164.5 -109.5t-254.5 -41.5 q-115 0 -211.5 44t-167 117.5t-110.5 173t-40 209.5zM279 1260l266 276h166l266 -276h-195l-155 163l-154 -163h-194zM293 598h675q-10 63 -38.5 120.5t-72.5 98.5t-101 65.5t-125 24.5t-124.5 -24.5t-100.5 -65.5t-73.5 -98t-39.5 -121z" />
<glyph unicode="&#xee;" horiz-adv-x="567" d="M-66 1260l267 276h166l266 -276h-195l-155 163l-154 -163h-195zM190 0h185v1085h-185v-1085z" />
<glyph unicode="&#xf2;" horiz-adv-x="1259" d="M102 524q0 111 40 211.5t110.5 175t167 119.5t211.5 45q113 0 210 -45t167.5 -119.5t110.5 -175t40 -211.5t-40 -210t-110.5 -172.5t-168 -117.5t-209.5 -44q-115 0 -211.5 44t-167 117.5t-110.5 172.5t-40 210zM286 524q0 -76 26 -144.5t71 -119.5t108.5 -80.5 t139.5 -29.5t139 29.5t109 80.5t71 120t25 144q0 76 -25 145.5t-71 123t-109.5 84t-138.5 30.5q-76 0 -139.5 -30.5t-108.5 -84t-71 -123t-26 -145.5zM356 1536h230l235 -276h-158z" />
<glyph unicode="&#xf3;" horiz-adv-x="1259" d="M102 524q0 111 40 211.5t110.5 175t167 119.5t211.5 45q113 0 210 -45t167.5 -119.5t110.5 -175t40 -211.5t-40 -210t-110.5 -172.5t-168 -117.5t-209.5 -44q-115 0 -211.5 44t-167 117.5t-110.5 172.5t-40 210zM286 524q0 -76 26 -144.5t71 -119.5t108.5 -80.5 t139.5 -29.5t139 29.5t109 80.5t71 120t25 144q0 76 -25 145.5t-71 123t-109.5 84t-138.5 30.5q-76 0 -139.5 -30.5t-108.5 -84t-71 -123t-26 -145.5zM438 1260l236 276h229l-307 -276h-158z" />
<glyph unicode="&#xf4;" horiz-adv-x="1259" d="M102 524q0 111 40 211.5t110.5 175t167 119.5t211.5 45q113 0 210 -45t167.5 -119.5t110.5 -175t40 -211.5t-40 -210t-110.5 -172.5t-168 -117.5t-209.5 -44q-115 0 -211.5 44t-167 117.5t-110.5 172.5t-40 210zM283 1260l266 276h166l266 -276h-195l-155 163l-154 -163 h-194zM286 524q0 -76 26 -144.5t71 -119.5t108.5 -80.5t139.5 -29.5t139 29.5t109 80.5t71 120t25 144q0 76 -25 145.5t-71 123t-109.5 84t-138.5 30.5q-76 0 -139.5 -30.5t-108.5 -84t-71 -123t-26 -145.5z" />
<glyph unicode="&#xf9;" horiz-adv-x="1286" d="M250 524v531h184v-510q0 -190 53.5 -292.5t192.5 -102.5q137 0 191.5 102t54.5 293v510h184v-531q0 -285 -111.5 -414.5t-318.5 -129.5t-318.5 130t-111.5 414zM366 1536h230l235 -276h-158z" />
<glyph unicode="&#xfa;" horiz-adv-x="1286" d="M250 524v531h184v-510q0 -190 53.5 -292.5t192.5 -102.5q137 0 191.5 102t54.5 293v510h184v-531q0 -285 -111.5 -414.5t-318.5 -129.5t-318.5 130t-111.5 414zM452 1260l236 276h229l-307 -276h-158z" />
<glyph unicode="&#xfb;" horiz-adv-x="1286" d="M250 524v531h184v-510q0 -190 53.5 -292.5t192.5 -102.5q137 0 191.5 102t54.5 293v510h184v-531q0 -285 -111.5 -414.5t-318.5 -129.5t-318.5 130t-111.5 414zM293 1260l266 276h166l266 -276h-195l-155 163l-154 -163h-194z" />
<glyph unicode="&#x2c6;" horiz-adv-x="1251" d="M283 1260l266 276h166l266 -276h-195l-155 163l-154 -163h-194z" />
<glyph unicode="&#x2000;" horiz-adv-x="983" />
<glyph unicode="&#x2001;" horiz-adv-x="1966" />
<glyph unicode="&#x2002;" horiz-adv-x="983" />
<glyph unicode="&#x2003;" horiz-adv-x="1966" />
<glyph unicode="&#x2004;" horiz-adv-x="655" />
<glyph unicode="&#x2005;" horiz-adv-x="491" />
<glyph unicode="&#x2006;" horiz-adv-x="327" />
<glyph unicode="&#x2007;" horiz-adv-x="327" />
<glyph unicode="&#x2008;" horiz-adv-x="245" />
<glyph unicode="&#x2009;" horiz-adv-x="393" />
<glyph unicode="&#x200a;" horiz-adv-x="109" />
<glyph unicode="&#x2010;" d="M164 524v146h477v-146h-477z" />
<glyph unicode="&#x2011;" d="M164 524v146h477v-146h-477z" />
<glyph unicode="&#x2012;" d="M164 524v146h477v-146h-477z" />
<glyph unicode="&#x2013;" horiz-adv-x="1159" d="M102 524v150h955v-150h-955z" />
<glyph unicode="&#x2014;" horiz-adv-x="1568" d="M102 524v150h1364v-150h-1364z" />
<glyph unicode="&#x2018;" horiz-adv-x="518" d="M164 1176l98 360h92v-360h-190z" />
<glyph unicode="&#x2019;" horiz-adv-x="518" d="M164 1176v360h190l-98 -360h-92z" />
<glyph unicode="&#x201c;" horiz-adv-x="757" d="M164 1176l98 360h92v-360h-190zM403 1176l99 360h92v-360h-191z" />
<glyph unicode="&#x201d;" horiz-adv-x="757" d="M164 1176v360h190l-98 -360h-92zM403 1176v360h191l-98 -360h-93z" />
<glyph unicode="&#x2022;" horiz-adv-x="628" d="M102 586q0 43 17.5 81t47.5 67.5t67.5 46t80.5 16.5t81 -16.5t68 -46t46 -67.5t16 -81t-16 -81t-46 -66.5t-68 -45t-81 -16.5t-80.5 16.5t-67.5 45t-47.5 66.5t-17.5 81z" />
<glyph unicode="&#x2026;" horiz-adv-x="1339" d="M164 0v180h201v-180h-201zM164 0v180h201v-180h-201zM569 0v180h201v-180h-201zM975 0v180h201v-180h-201z" />
<glyph unicode="&#x202f;" horiz-adv-x="393" />
<glyph unicode="&#x205f;" horiz-adv-x="491" />
<glyph unicode="&#x20ac;" horiz-adv-x="1669" d="M61 524v150h1364v-150h-1364zM61 907v150h1364v-150h-1364zM258 754q0 168 57.5 314t157.5 255t238.5 171t298.5 62q166 0 305 -67.5t239 -183.5l-122 -123q-72 88 -179.5 142t-240.5 54q-127 0 -230.5 -48t-175 -132t-110.5 -198.5t-39 -247.5t42 -242t116.5 -186.5 t176 -119.5t220.5 -42q141 0 255.5 56t192.5 157l125 -127q-100 -127 -247.5 -197.5t-327.5 -70.5q-158 0 -295 57t-238.5 159.5t-160 245t-58.5 312.5z" />
<glyph unicode="&#x25fc;" horiz-adv-x="1055" d="M0 0v1055h1055v-1055h-1055z" />
</font>
</defs>
</svg>
